# xmcd CD database file
#
# Track frame offsets:
#	150
#	25487
#	47075
#	62775
#	89915
#	126265
#	146017
#	165102
#	176985
#	197502
#	222990
#	243797
#	263022
#	293992
#
# Disc length: 4192 seconds
#
# Revision: 1
# Processed by: cddbd v1.5.2PL0 Copyright (c) Steve Scherf et al.
# Submitted via: CDex 1.81
#
DISCID=d4105e0e
DTITLE=European Jazz Trio - Supreme
DYEAR=2020
DGENRE=Jazz
TTITLE0=Maria
TTITLE1=DJango
TTITLE2=Liebestraum No.3
TTITLE3=Golden Earrings
TTITLE4=Europa
TTITLE5=Carmen "Habanera"
TTITLE6=Endless Love
TTITLE7=24 Capricci
TTITLE8=Libertango
TTITLE9=The Way You Look Tonight
TTITLE10=Phase Dance
TTITLE11=Mazuruka No.1
TTITLE12=Caravan
TTITLE13=Pathetique
EXTD=YEAR: 2020
EXTT0=
EXTT1=
EXTT2=
EXTT3=
EXTT4=
EXTT5=
EXTT6=
EXTT7=
EXTT8=
EXTT9=
EXTT10=
EXTT11=
EXTT12=
EXTT13=
PLAYORDER=
